<svg width="500" height="200" xmlns="http://www.w3.org/2000/svg">
<rect x="0" y="0" width="20.0" height="200" fill="white" stroke="black"/>
<rect x="20.0" y="0" width="20.0" height="200" fill="white" stroke="black"/>
<rect x="40.0" y="0" width="20.0" height="200" fill="white" stroke="black"/>
<rect x="60.0" y="0" width="20.0" height="200" fill="white" stroke="black"/>
<rect x="80.0" y="0" width="20.0" height="200" fill="white" stroke="black"/>
<rect x="100.0" y="0" width="20.0" height="200" fill="white" stroke="black"/>
<rect x="120.0" y="0" width="20.0" height="200" fill="white" stroke="black"/>
<rect x="140.0" y="0" width="20.0" height="200" fill="white" stroke="black"/>
<rect x="160.0" y="0" width="20.0" height="200" fill="white" stroke="black"/>
<rect x="180.0" y="0" width="20.0" height="200" fill="white" stroke="black"/>
<rect x="200.0" y="0" width="20.0" height="200" fill="white" stroke="black"/>
<rect x="220.0" y="0" width="20.0" height="200" fill="white" stroke="black"/>
<rect x="240.0" y="0" width="20.0" height="200" fill="white" stroke="black"/>
<rect x="260.0" y="0" width="20.0" height="200" fill="white" stroke="black"/>
<rect x="280.0" y="0" width="20.0" height="200" fill="white" stroke="black"/>
<rect x="13.0" y="0" width="14.0" height="120.0" fill="black" stroke="black"/>
<rect x="33.0" y="0" width="14.0" height="120.0" fill="black" stroke="black"/>
<rect x="73.0" y="0" width="14.0" height="120.0" fill="black" stroke="black"/>
<rect x="93.0" y="0" width="14.0" height="120.0" fill="black" stroke="black"/>
<rect x="113.0" y="0" width="14.0" height="120.0" fill="black" stroke="black"/>
<rect x="153.0" y="0" width="14.0" height="120.0" fill="black" stroke="black"/>
<rect x="173.0" y="0" width="14.0" height="120.0" fill="black" stroke="black"/>
<rect x="213.0" y="0" width="14.0" height="120.0" fill="black" stroke="black"/>
<rect x="233.0" y="0" width="14.0" height="120.0" fill="black" stroke="black"/>
<rect x="253.0" y="0" width="14.0" height="120.0" fill="black" stroke="black"/>
<text x="6.0" y="190" font-size="14" font-family="Arial" fill="black">C3</text>
<text x="146.0" y="190" font-size="14" font-family="Arial" fill="black">C4</text>
<text x="286.0" y="190" font-size="14" font-family="Arial" fill="black">C5</text>
</svg>